<?xml version="1.0" encoding="utf-8"?>
<svg width="1000" height="1000" viewBox="0 0 1000 1000" fill="none" xmlns="http://www.w3.org/2000/svg">
  <path d="M293.7 406.3H514.8L424.3 361A89.2 89.2 0 0 1 424.3 201.5 132.7 132.7 0 0 1 483.5 187.5H605.5A89 89 0 0 1 676.7 223.1L706.2 262.5A31.3 31.3 0 0 0 750 268.7L800 231.3A31.3 31.3 0 0 0 806.3 187.5L776.8 148.1A213.8 213.8 0 0 0 605.7 62.5H483.5A258.8 258.8 0 0 0 368.4 89.7C289.6 129.1 243 211.4 250.9 300.6 254.3 339.8 270.4 375.5 293.7 406.3ZM968.8 468.8H31.3A31.3 31.3 0 0 0 0 500V531.3A31.3 31.3 0 0 0 31.3 562.5H968.8A31.3 31.3 0 0 0 1000 531.3V500A31.3 31.3 0 0 0 968.8 468.8ZM788.1 625H610.2L638.2 639A89.2 89.2 0 0 1 638.2 798.5 132.7 132.7 0 0 1 579 812.5H457A89 89 0 0 1 385.8 776.9L356.3 737.5A31.3 31.3 0 0 0 312.5 731.3L262.5 768.8A31.3 31.3 0 0 0 256.2 812.5L285.7 851.9A213.8 213.8 0 0 0 456.8 937.5H579A258.6 258.6 0 0 0 694.1 910.3C772.9 870.9 819.5 788.6 811.6 699.4 809.3 672.7 800.1 648.1 788.1 625Z" fill="#000"/>
</svg>
