<?xml version="1.0" encoding="utf-8"?>
<svg width="1000" height="1000" viewBox="0 0 1000 1000" fill="none" xmlns="http://www.w3.org/2000/svg">
  <path d="M 387.611 278.318 L 362.577 278.318 C 355.699 278.318 350.1 283.916 350.1 290.794 L 350.1 709.498 C 350.1 716.376 355.699 721.974 362.577 721.974 L 387.611 721.974 C 394.489 721.974 400.088 716.376 400.088 709.498 L 400.088 290.794 C 400.088 283.916 394.489 278.318 387.611 278.318 Z M 637.547 278.318 L 562.527 278.318 C 555.649 278.318 550.05 283.916 550.05 290.794 L 550.05 709.498 C 550.05 716.376 555.649 721.974 562.527 721.974 L 637.547 721.974 C 644.426 721.974 650.025 716.376 650.025 709.498 L 650.025 290.794 C 650.025 283.916 644.426 278.318 637.547 278.318 Z M 974.983 50.025 L 775.033 50.025 C 761.277 50.025 749.999 61.302 749.999 75.059 L 749.999 100.013 C 749.999 113.769 761.277 125.046 775.033 125.046 L 924.995 125.046 L 924.995 275.008 C 924.995 288.685 936.193 299.962 949.949 299.962 L 974.983 299.962 C 988.66 299.962 999.937 288.685 999.937 275.008 L 999.937 75.059 C 999.937 61.302 988.66 50.025 974.983 50.025 Z M 974.983 700.038 L 949.949 700.038 C 936.193 700.038 924.995 711.315 924.995 725.071 L 924.995 875.033 L 775.033 875.033 C 761.277 875.033 749.999 886.231 749.999 899.987 L 749.999 925.021 C 749.999 938.698 761.277 949.975 775.033 949.975 L 974.983 949.975 C 988.66 949.975 999.937 938.698 999.937 925.021 L 999.937 725.071 C 999.937 711.315 988.66 700.038 974.983 700.038 Z M 487.585 278.318 L 462.552 278.318 C 455.673 278.318 450.075 283.916 450.075 290.794 L 450.075 709.498 C 450.075 716.376 455.673 721.974 462.552 721.974 L 487.585 721.974 C 494.464 721.974 500.062 716.376 500.062 709.498 L 500.062 290.794 C 500.062 283.916 494.464 278.318 487.585 278.318 Z M 799.987 709.448 L 799.987 290.744 C 799.987 283.866 794.389 278.268 787.511 278.268 L 712.489 278.268 C 705.611 278.268 700.012 283.866 700.012 290.744 L 700.012 709.448 C 700.012 716.326 705.611 721.924 712.489 721.924 L 787.511 721.924 C 794.389 721.924 799.987 716.326 799.987 709.448 Z M 25.097 299.962 L 50.051 299.962 C 63.807 299.962 75.084 288.685 75.084 275.008 L 75.084 125.046 L 225.046 125.046 C 238.723 125.046 250 113.769 250 100.013 L 250 75.059 C 250 61.302 238.723 50.025 225.046 50.025 L 25.097 50.025 C 11.34 50.025 0.063 61.302 0.063 75.059 L 0.063 275.008 C 0.063 288.685 11.34 299.962 25.097 299.962 Z M 225.171 875.033 L 75.209 875.033 L 75.209 725.071 C 75.209 711.315 63.932 700.038 50.176 700.038 L 25.222 700.038 C 11.465 700.038 0.188 711.315 0.188 725.071 L 0.188 925.021 C 0.188 938.698 11.465 949.975 25.222 949.975 L 225.171 949.975 C 238.848 949.975 250.125 938.698 250.125 925.021 L 250.125 899.987 C 250.125 886.231 238.848 875.033 225.171 875.033 Z M 287.636 278.318 L 212.614 278.318 C 205.736 278.318 200.138 283.916 200.138 290.794 L 200.138 709.498 C 200.138 716.376 205.736 721.974 212.614 721.974 L 287.636 721.974 C 294.514 721.974 300.112 716.376 300.112 709.498 L 300.112 290.794 C 300.112 283.916 294.514 278.318 287.636 278.318 Z" fill="#000" style=""/>
</svg>