<?xml version="1.0" encoding="utf-8"?>
<svg width="1000" height="1000" viewBox="0 0 1000 1000" fill="none" xmlns="http://www.w3.org/2000/svg">
  <path d="M 857.326 796.918 L 609.517 796.918 C 586.787 796.918 567.935 778.065 567.935 755.334 C 567.935 732.513 586.787 713.661 609.517 713.661 L 857.326 713.661 C 865.625 713.661 871.759 707.527 871.759 699.77 L 871.759 172.448 C 871.759 165.232 865.084 158.557 857.867 158.557 L 219.506 158.557 C 211.749 158.557 205.705 164.69 205.705 172.448 L 205.705 295.368 C 205.705 318.099 186.762 336.951 164.032 336.951 C 141.301 336.951 122.358 318.099 122.358 295.368 L 122.358 172.448 C 122.358 118.597 165.656 75.3 219.506 75.3 L 857.867 75.3 C 911.176 75.3 955.015 119.138 955.015 172.448 L 955.015 699.77 C 955.015 753.621 911.718 796.918 857.326 796.918 Z M 42.828 439.178 L 289.311 439.178 L 288.603 561.755 L 410.384 561.755 L 410.384 623.708 L 42.828 917.629 L 42.828 439.178 Z M 330.199 456.702 L 392.86 520.867 L 330.199 520.867 L 330.199 456.702 Z M 410.384 725.841 L 410.384 766.642 L 451.273 766.642 L 451.273 725.841 L 410.384 725.841 Z M 410.384 807.53 L 410.384 848.33 L 451.273 848.33 L 451.273 807.53 L 410.384 807.53 Z M 410.384 889.219 L 410.384 930.02 L 451.273 930.02 L 451.273 889.219 L 410.384 889.219 Z M 410.384 930.02 L 369.584 930.02 L 369.584 970.908 L 410.384 970.908 L 410.384 930.02 Z M 287.896 930.02 L 287.896 970.908 L 328.695 970.908 L 328.695 930.02 L 287.896 930.02 Z M 205.498 930.02 L 205.498 970.908 L 247.007 970.908 L 247.007 930.02 L 205.498 930.02 Z M 123.809 930.02 L 123.809 970.908 L 164.609 970.908 L 164.609 930.02 L 123.809 930.02 Z" fill="#000" style=""/>
</svg>