<?xml version="1.0" encoding="utf-8"?>
<svg width="1000" height="1000" viewBox="0 0 1000 1000" fill="none" xmlns="http://www.w3.org/2000/svg">
  <path d="M 155.708 144.54 L 213.074 144.54 L 213.074 500 C 213.074 650.813 341.741 773.467 500 773.467 C 658.259 773.467 786.926 650.813 786.926 500 L 786.926 144.54 L 844.291 144.54 C 860.16 144.54 873.023 132.276 873.023 117.146 L 873.023 89.847 C 873.023 74.717 860.16 62.452 844.291 62.452 L 614.732 62.452 C 598.901 62.502 586.096 74.753 586.096 89.847 L 586.096 117.146 C 586.096 132.239 598.901 144.49 614.732 144.54 L 672.193 144.54 L 672.193 500 C 672.193 626.31 528.699 705.253 413.903 642.098 C 360.626 612.788 327.806 558.62 327.806 500 L 327.806 144.54 L 385.268 144.54 C 401.099 144.49 413.903 132.239 413.903 117.146 L 413.903 89.847 C 413.903 74.753 401.099 62.502 385.268 62.452 L 155.708 62.452 C 139.839 62.452 126.977 74.717 126.977 89.847 L 126.977 117.146 C 126.977 132.276 139.839 144.54 155.708 144.54 Z M 873.023 855.556 L 126.977 855.556 C 111.147 855.556 98.301 867.762 98.246 882.854 L 98.246 910.25 C 98.301 925.341 111.147 937.548 126.977 937.548 L 873.023 937.548 C 888.852 937.548 901.699 925.341 901.754 910.25 L 901.754 882.854 C 901.699 867.762 888.852 855.556 873.023 855.556 Z" fill="#000" style=""/>
</svg>