<?xml version="1.0" encoding="utf-8"?>
<svg width="1000" height="1000" viewBox="0 0 1000 1000" fill="none" xmlns="http://www.w3.org/2000/svg">
  <path d="M 296.279 447.232 C 314.589 447.232 331.818 460.04 336.238 478.351 L 430.68 871.904 C 435.641 901.309 416.788 924.672 389.548 924.672 C 371.236 924.672 354.549 911.863 350.129 893.552 L 255.778 500 C 248.02 473.3 269.128 447.232 296.279 447.232 Z M 901.896 796.946 L 819.18 796.946 C 796.45 796.946 777.598 778.093 777.598 755.362 C 777.598 732.541 796.45 713.689 819.18 713.689 L 901.896 713.689 C 910.195 713.689 916.329 707.555 916.329 699.798 L 916.329 172.476 C 916.329 165.26 909.654 158.585 902.437 158.585 L 264.076 158.585 C 256.319 158.585 250.275 164.718 250.275 172.476 L 250.275 311.297 C 250.275 334.028 231.332 352.88 208.602 352.88 C 185.871 352.88 166.928 334.028 166.928 311.297 L 166.928 172.476 C 166.928 118.625 210.226 75.328 264.076 75.328 L 902.437 75.328 C 955.746 75.328 999.585 119.166 999.585 172.476 L 999.585 699.798 C 999.585 753.649 956.288 796.946 901.896 796.946 Z M 514.478 609.325 L 512.222 607.16 C 496.166 591.014 496.166 564.404 512.222 548.258 C 528.368 532.203 554.979 532.203 571.034 548.258 L 680.991 655.419 C 689.289 663.717 694.341 673.729 694.341 685.907 C 694.341 698.174 688.748 708.728 680.991 716.486 L 571.666 823.014 C 555.519 839.16 528.91 839.16 512.764 823.014 C 496.708 806.958 496.708 780.349 512.764 764.202 L 515.018 761.947 L 597.193 685.907 L 514.478 609.325 Z M 182.533 607.16 L 180.278 609.325 L 97.563 685.907 L 179.737 761.947 L 181.992 764.202 C 198.048 780.349 198.048 806.958 181.992 823.014 C 165.846 839.16 139.237 839.16 123.09 823.014 L 13.765 716.486 C 6.008 708.728 0.41500000000000004 698.174 0.41500000000000004 685.907 C 0.41500000000000004 673.729 5.467 663.717 13.765 655.419 L 123.631 548.258 C 139.777 532.203 166.387 532.203 182.533 548.258 C 198.59 564.404 198.59 591.014 182.533 607.16 Z" fill="#000" style=""/>
</svg>